<?xml version="1.0" encoding="UTF-8"?><svg id="_レイヤー_2" xmlns="http://www.w3.org/2000/svg" viewBox="0 0 348.03 50"><g id="_レイヤー_1-2"><path d="m128.71,38.62c-1,.72-1.68,1.64-2,2.72-.32,1.04-.44,1.16-1.48,1.24-2.6.2-5.68.28-10.72.28-9.56,0-12.88-1.64-15.28-6.04-1.32,1.4-2.88,2.88-4.64,4.32-.16.96-.44,1.44-.92,1.44s-.92-.64-2.8-4.64c1.64-.52,3.52-1.16,5.16-1.76v-11.04h-1.72l-3.2.2v-2.4l3.2.2h1.68c.76-1.6,1.2-1.92,1.64-1.92.56,0,.92.08,2.44,1.28,1.48,1.16,1.64,1.6,1.64,2,0,.48-.28.84-1.44,1.4v10.32c2.44,2.16,5.88,2.68,14.24,2.68,5.08,0,9.36-.28,14.2-.88v.6Zm-35.51-30.08c4.36.6,6.68,2.28,6.68,4.64,0,1.76-1.04,2.6-2.44,2.6-.96,0-1.68-.6-1.92-1.68-.44-2.08-1.36-3.96-2.56-5.04l.24-.52Zm19.12,22.84c.04-1.12.08-2.28.08-3.4h-4.36c-.08.8-.96,1.56-2.96,1.56-.72,0-1.16-.36-1.16-1.04,0-.84.2-3,.2-9.04,0-2.68-.04-3.68-.12-5.2,2.08.56,3.24.88,4.04,1.16h4.44v-2.76h-6.64l-3.92.2v-2.4l3.92.2h6.64c-.04-1.72-.12-3.04-.2-4.28,4.72.48,5.56.76,5.56,1.24,0,.52-.36.72-1.44,1.2v1.84h4.92c.76-.96,1.6-1.92,2.48-2.84,3.72,3.04,4.12,3.64,4.12,4,0,.48-.24.84-.64.84h-10.88v2.76h4.64c.6-1.12.96-1.4,1.36-1.4.52,0,1.08.08,2.56,1.12,1.16.8,1.32,1.24,1.32,1.6,0,.48-.28.76-1.24,1.4v1c0,2.24.16,7.28.16,7.96s-.4,1.16-1.04,1.4c3.72,3.08,4.12,3.68,4.12,4.04,0,.48-.24.84-.64.84h-11.08c.04,1.76.08,2.6.08,3.08,0,1-1.48,1.68-3.24,1.68-.76,0-1.2-.36-1.2-.96s.04-1.6.08-3.8h-6.84l-3.92.2v-2.4l3.92.2h6.88Zm-4.24-13.96l-.04.08v2.96h4.4c.04-1,.04-2.04.04-3.04h-4.4Zm-.04,5.04v3.52h4.36c.04-1.16.04-2.36.04-3.52h-4.4Zm8.4-5.04v3.04h4.6v-3.04h-4.6Zm0,5.04v3.52h4.6v-3.52h-4.6Zm5.04,8.92c.72-.88,1.48-1.8,2.36-2.72-.48.12-1.08.2-1.72.2s-1.04-.24-1.08-.88h-4.56c0,1.12.04,2.28.04,3.4h4.96Z"/><path d="m156.75,10.34c0,1.48.12,3.04.12,4.16,0,.52-.16,1.04-.4,1.48,1.52-1.36,2.92-2.72,4.08-4.08,3.72,2.12,4.2,2.52,4.2,3.12,0,.4-.28.72-1.56.72h-.24c-1.24,1.08-2.68,2.2-4.28,3.32,4,1.08,4.56,1.48,4.56,1.92s-.4.8-1.68.92c-.6.48-1.28.96-1.92,1.44h5.8c.84-1.04,1.76-2.04,2.68-3.08,3.84,3.2,4.2,3.72,4.2,4.16,0,.48-.2.92-.64.92h-11.44c-.12.24-.28.4-.52.52v2.56h5.16c.8-.96,1.52-1.8,2.44-2.84,3.52,3.08,4.04,3.56,4.04,4,0,.48-.2.84-.6.84h-11.04v3.16h5.16c.8-.96,1.6-1.84,2.44-2.84,3.52,3.08,4.04,3.56,4.04,4,0,.48-.2.84-.6.84h-11.04v3.64h6.16c.88-1.04,1.76-2.08,2.8-3.16,3.96,3.16,4.36,3.8,4.36,4.24,0,.48-.2.92-.64.92h-24.2v1.04c0,.84-1.28,1.68-3.4,1.68-.72,0-1.12-.36-1.12-1.04,0-.96.2-4.04.2-13.68v-2.28c-2.56,1-5.2,1.84-7.84,2.56l-.2-.56c2.72-1.28,5.4-2.6,8-4.12-.04-1-.08-1.84-.12-2.72,1.4.32,2.48.6,3.24.84,2.6-1.64,5.16-3.36,7.52-5.32-.64.28-1.36.44-2.08.44s-.8-.08-1-.84c-.36-1.32-1.08-2.16-3.28-2.84l.04-.6c1.24.12,2.12.2,2.64.2,1.48,0,1.72-.16,1.72-1.36v-2.6c0-1.32-.08-2.88-.16-3.56,5.32.48,5.92.84,5.92,1.4,0,.6-.44.88-1.52,1.28v1.2Zm-20.6,8.24c3.08-2.36,6.44-5.76,8.68-9.88,4.04,1.92,4.76,2.36,4.76,2.96,0,.44-.32.72-1.76.76-2.84,2.8-7,5.36-11.4,6.64l-.28-.48Zm19.44,9.84v-3.08h-7.32l-.08.08v3h7.4Zm-7.4,5.16h7.4v-3.16h-7.4v3.16Zm0,5.64h7.4v-3.64h-7.4v3.64Zm8.76-15.88c.4-1.28.76-2.56,1.04-3.84-2.04,1.4-4.2,2.64-6.4,3.84h5.36Zm3.68-15.32c3.36,0,6.6.76,9,2.36,1.16.76,1.88,1.8,1.88,2.92,0,1.44-.96,2.2-2.08,2.2-.88,0-1.44-.36-2.44-1.72-1.72-2.28-4.36-4.32-6.56-5.2l.2-.56Z"/><path d="m186,18.5l-3.6.2v-2.4l3.6.2h1.72v-3.56c0-2.92-.08-4.76-.2-6.36,4.76.48,5.52.76,5.52,1.28s-.36.76-1.48,1.24v7.4h.4c.6-.88,1.28-1.76,2.08-2.68,2.76,2.84,3.12,3.32,3.12,3.76,0,.48-.2.92-.64.92h-4.96c0,1.52.04,3.96.04,5.44,4.32.72,5.8,2.6,5.8,4.36,0,1.48-.88,2.24-2.12,2.24-.92,0-1.68-.56-1.88-1.72-.24-1.56-.84-2.92-1.8-3.96.04,12.44.2,15.6.2,16.76,0,1.04-1.36,1.72-3.12,1.72-.8,0-1.24-.36-1.24-1,0-1.12.16-4,.24-14.24-1.4,2.84-3.08,5.52-5.12,7.96l-.48-.36c1.32-2.88,2.4-5.84,3.32-8.88.8-2.72,1.52-5.48,1.92-8.32h-1.32Zm34.55,18.52c-1.36.16-2.6.84-3.44,1.64-.4.4-.6.6-.84.6s-.44-.2-.8-.56c-2.88-3.08-5.04-7.92-5.96-12.8.04,12.24.2,15,.2,16.04s-1.48,1.68-3.32,1.68c-.76,0-1.2-.36-1.2-.96,0-1.04.12-3.52.2-13.28-3.12,4.64-7.4,8.2-12.48,10.72l-.4-.52c4.52-3.76,8.48-9.2,10.84-14.76h-4.04l-3.72.2v-2.4l3.72.2h6.12c.04-2.04.04-4.08.04-6.12h-4.44c-1,2.04-2.28,3.96-4,5.8l-.52-.28c1.4-3.72,2.32-8.8,2.76-13.68,4.96,1.04,5.4,1.32,5.4,1.8,0,.52-.52.8-1.52,1.04-.36,1.12-.76,2.24-1.2,3.32h3.52v-2.4c0-2.48-.08-4.24-.2-5.8,4.8.48,5.64.76,5.64,1.24,0,.52-.36.72-1.44,1.2v5.76h2.88c.76-.96,1.52-1.96,2.6-3.16,3.92,3.4,4.12,3.88,4.12,4.32,0,.48-.2.84-.6.84h-9c0,1.64.04,4.8.04,6.12h3.36c.8-1.04,1.64-2.04,2.72-3.24,4,3.4,4.24,3.88,4.24,4.32,0,.48-.2.92-.64.92h-8.96c1.92,4.28,5.8,8.88,10.48,11.64l-.16.56Z"/><path d="m235.2,24.74h-2.96l-3.72.2v-2.4l3.72.2h7.84c.64-.84,1.52-1.92,2.4-2.92,3.64,3.24,3.88,3.72,3.88,4.08,0,.48-.24.84-.64.84h-5.52c-.16.28-.4.4-.68.48v9.04c3-.24,5.96-.6,8.92-.96l.16.6c-6.72,2.6-12.4,4.24-17.88,5.56-.28,1.08-.6,1.56-1.16,1.56s-1.16-.64-2.84-5.92c2.92-.12,5.72-.32,8.48-.52v-9.84Zm-4.08-9.08l-4,.2v-2.4l4,.2h15.08c-.12-2.24-.16-4.68-.16-7.4,5.64.6,5.88.88,5.88,1.48,0,.48-.4.84-1.44,1.28,0,1.64.04,3.2.08,4.64h6.72c.88-1.16,1.68-2.08,2.68-3.16,3.72,3.24,3.88,3.76,3.88,4.24,0,.56-.2.92-.64.92h-12.56c.36,5.92,1.24,10.24,2.68,13.52,1.16,2.6,2.8,4.8,4.28,6.28,1.12,1.12,1.48,1.4,1.84,1.4.52,0,.8-.2,1.24-.84.72-1.08,1.56-2.44,2.12-3.68l.56.24c-.6,2.64-.8,3.84-.8,5.08,0,1.08,1.24,1.6,1.24,3.04s-.96,2.28-2.56,2.28-3.76-.6-6.4-3.32c-2.24-2.28-4.36-5.4-5.64-8.52-1.48-3.68-2.48-8.4-2.92-15.48h-15.16Zm21.4-8.6c4.4,0,6.12,1.8,6.12,3.4,0,1.44-1,2.16-2.08,2.16-.96,0-1.64-.52-2-1.64-.48-1.56-1.24-2.64-2.24-3.36l.2-.56Z"/><path d="m269.12,25.1c6.56-4.52,12.64-11.08,16.88-19.04,5.16,1.76,5.52,2.04,5.52,2.68,0,.32-.24.76-1.36,1.04,3.8,4.72,9.64,8.12,16.88,10.2l-.12.6c-1.36.24-2.68,1.16-3.48,2.44-.36.56-.52.8-.8.8-.2,0-.48-.12-.84-.32-5.76-3.04-9.96-7.56-12.64-13.32-4.64,6.76-11.96,12.32-19.68,15.4l-.36-.48Zm19.2,4.72c-.16.4-.48.64-1.16.68-1.6,2.36-4.12,5.08-6.36,6.92,5.08-.08,10.12-.2,15.2-.44-1.4-1.84-2.96-3.52-4.8-4.88l.36-.48c4.52,1.12,8.04,3.08,10.28,5.56.96,1.08,1.28,2.12,1.28,3.16,0,1.36-1.04,2.4-2.2,2.4-1.08,0-1.96-.36-2.56-1.72-.4-.96-.92-1.88-1.48-2.72-7.68,1.64-15,2.8-21.28,3.48-.4,1.12-.76,1.36-1.28,1.36-.56,0-.92-.56-2.44-5.64,2.32,0,4.56,0,6.68-.04,1.36-2.44,2.48-5,3.44-7.64h-6.56l-4,.2v-2.4l4,.2h21.72c.88-1.16,1.88-2.4,3-3.56,4.36,3.92,4.52,4.24,4.52,4.72s-.24.84-.64.84h-15.72Zm-6.2-8.68h6.92c.88-1.12,1.8-2.24,2.88-3.32,4.12,3.72,4.28,4.08,4.28,4.48,0,.48-.24.84-.64.84h-13.44l-3.56.2v-2.4l3.56.2Z"/><path d="m314.84,16.22l-3.84.2v-2.4l3.84.2h1.4v-3.2c0-2.04-.08-3.2-.2-4.28,5.12.48,6.04.8,6.04,1.36s-.44.84-1.6,1.32v4.8h1.16c.76-1.2,1.2-1.52,1.6-1.52.56,0,1.08.24,2.24,1.12,1.4,1.04,1.72,1.56,1.72,1.96,0,.44-.28.8-1.56,1.4-1.32,2.68-3.08,5.2-5.16,7.56v1.6c4.44.32,6.52,2.24,6.52,4.04,0,1.28-.88,2.32-2.12,2.32-1.04,0-1.64-.56-1.96-1.6-.48-1.68-1.32-2.96-2.44-3.8v.68c0,10.48.12,13.12.12,14.2,0,.88-1.48,1.44-3.2,1.44-.72,0-1.08-.32-1.08-.92,0-1.12.16-3.6.16-14.04-1.84,1.56-3.8,2.96-5.84,4.2l-.4-.44c2.56-2.52,4.8-5.32,6.76-8.32,1.6-2.52,3.04-5.12,4.16-7.88h-6.32Zm18.64,6h-4.16l-4,.2v-2.4l4,.2h4.16v-6.44c0-3.08-.08-5.24-.24-7,5.72.48,6.56.84,6.56,1.44s-.48.92-1.76,1.4v10.6h2.12c.8-1.16,1.6-2.24,2.56-3.28,4.08,3.48,4.32,3.92,4.32,4.36,0,.48-.2.92-.64.92h-8.36v17.24h2.8c.84-1.12,1.64-2.12,2.68-3.36,4.12,3.44,4.52,3.92,4.52,4.52,0,.56-.28.84-.56.84h-21.4l-4,.2v-2.4l4,.2h7.4v-17.24Z"/><circle cx="60.39" cy="9.58" r="2.45"/><path d="m41.86,17.73s1.79-1.96,7.14-2.4c0,0,2.44-8.54,11.39-9.58,0,0,7.43-1.44,13,5.14,0,0,3.01-2.4,5.79-2.83,0,0-2.79-1.26-6.53-1.26,0,0-3.09-6.32-11.02-6.75,0,0-8.62-1-14.77,6.66,0,0-3.62,4.27-5.01,11.02Z"/><path d="m56.57,20.91c-6.42-5.58-14.91.65-14.91.65-9.61,6.4-17.18,6.27-17.18,6.27C9.15,29.05,0,20.69,0,20.69c2.83,4.83,7.7,9.63,7.7,9.63,12.58,11.37,24.75,12.41,24.75,12.41,20.82,2,25.63-10.15,25.63-10.15,3.66-7.61-1.51-11.67-1.51-11.67Zm-22.46,13.81s-11.46.78-18.51-4.27c0,0,6.82,2.48,16.48,1.83,0,0,10.92-.35,18.45-6.4,0,0-4.31,7.88-16.42,8.84Z"/><path d="m72.99,11.57s-1.58,3.25-2.34,9.65c0,0-.43,3.67-.96,7.11-1.2,7.74-7.37,19.45-22.91,21.37,0,0-11.93,2.18-22.3-5.18,0,0,8.23,3.7,19.47,1.79,0,0,12.33-1.61,18.12-13.07,0,0,1.58-2.37,2.63-6.76.45-1.88.74-3.21,1.42-6.7.73-3.71,2.19-7.74,6.87-8.21Z"/></g></svg>