<?xml version="1.0" encoding="UTF-8"?><svg id="_レイヤー_1" xmlns="http://www.w3.org/2000/svg" viewBox="0 0 1237 178.15"><defs><style>.cls-1{fill:#19211b;}</style></defs><path class="cls-1" d="m458.58,137.59c-3.56,2.56-5.98,5.84-7.12,9.69-1.14,3.7-1.57,4.13-5.27,4.42-9.26.71-20.24,1-38.19,1-34.06,0-45.88-5.84-54.43-21.52-4.7,4.99-10.26,10.26-16.53,15.39-.57,3.42-1.57,5.13-3.27,5.13s-3.28-2.28-9.98-16.53c5.84-1.85,12.54-4.13,18.38-6.27v-39.33h-6.13l-11.4.71v-8.55l11.4.71h5.98c2.71-5.7,4.27-6.84,5.84-6.84,1.99,0,3.28.29,8.69,4.56,5.27,4.13,5.84,5.7,5.84,7.12,0,1.71-1,2.99-5.13,4.99v36.76c8.69,7.69,20.95,9.54,50.73,9.54,18.1,0,33.34-1,50.58-3.13v2.14Zm-126.53-107.15c15.53,2.14,23.8,8.12,23.8,16.53,0,6.27-3.71,9.26-8.69,9.26-3.42,0-5.98-2.14-6.84-5.98-1.57-7.41-4.84-14.11-9.12-17.96l.86-1.85Zm68.11,81.36c.14-3.99.29-8.12.29-12.11h-15.53c-.29,2.85-3.42,5.56-10.55,5.56-2.56,0-4.13-1.28-4.13-3.7,0-2.99.71-10.69.71-32.21,0-9.55-.14-13.11-.43-18.52,7.41,2,11.54,3.13,14.39,4.13h15.81v-9.83h-23.65l-13.96.71v-8.55l13.96.71h23.65c-.14-6.13-.42-10.83-.71-15.25,16.81,1.71,19.8,2.71,19.8,4.42,0,1.85-1.28,2.56-5.13,4.28v6.56h17.53c2.71-3.42,5.7-6.84,8.83-10.12,13.25,10.83,14.68,12.97,14.68,14.25,0,1.71-.85,2.99-2.28,2.99h-38.76v9.83h16.53c2.14-3.99,3.42-4.99,4.85-4.99,1.85,0,3.85.29,9.12,3.99,4.13,2.85,4.7,4.42,4.7,5.7,0,1.71-1,2.71-4.42,4.99v3.56c0,7.98.57,25.93.57,28.35s-1.43,4.13-3.71,4.99c13.25,10.97,14.68,13.11,14.68,14.39,0,1.71-.86,2.99-2.28,2.99h-39.47c.14,6.27.29,9.26.29,10.97,0,3.56-5.27,5.98-11.54,5.98-2.71,0-4.27-1.28-4.27-3.42s.14-5.7.29-13.53h-24.37l-13.97.71v-8.55l13.97.71h24.51Zm-15.1-49.73l-.14.29v10.54h15.67c.14-3.56.14-7.27.14-10.83h-15.67Zm-.14,17.95v12.54h15.53c.14-4.13.14-8.41.14-12.54h-15.67Zm29.92-17.95v10.83h16.38v-10.83h-16.38Zm0,17.95v12.54h16.38v-12.54h-16.38Zm17.95,31.77c2.56-3.13,5.27-6.41,8.41-9.69-1.71.43-3.85.71-6.13.71s-3.71-.85-3.85-3.13h-16.24c0,3.99.14,8.12.14,12.11h17.67Z"/><path class="cls-1" d="m553.5,36.85c0,5.27.43,10.83.43,14.82,0,1.85-.57,3.71-1.43,5.27,5.42-4.84,10.4-9.69,14.54-14.53,13.25,7.55,14.96,8.98,14.96,11.11,0,1.43-1,2.57-5.56,2.57h-.86c-4.42,3.84-9.55,7.84-15.25,11.83,14.25,3.84,16.24,5.27,16.24,6.84s-1.42,2.85-5.98,3.28c-2.14,1.71-4.56,3.42-6.84,5.13h20.66c2.99-3.71,6.27-7.27,9.55-10.97,13.68,11.4,14.96,13.25,14.96,14.82,0,1.71-.71,3.28-2.28,3.28h-40.75c-.43.86-1,1.43-1.85,1.85v9.12h18.38c2.85-3.42,5.41-6.41,8.69-10.12,12.54,10.97,14.39,12.68,14.39,14.25,0,1.71-.71,2.99-2.14,2.99h-39.33v11.26h18.38c2.85-3.42,5.7-6.56,8.69-10.12,12.54,10.97,14.39,12.68,14.39,14.25,0,1.71-.71,2.99-2.14,2.99h-39.33v12.97h21.94c3.13-3.71,6.27-7.41,9.98-11.26,14.11,11.26,15.53,13.53,15.53,15.1,0,1.71-.71,3.28-2.28,3.28h-86.21v3.71c0,2.99-4.56,5.98-12.11,5.98-2.56,0-3.99-1.28-3.99-3.71,0-3.42.71-14.39.71-48.73v-8.12c-9.12,3.56-18.52,6.56-27.93,9.12l-.71-1.99c9.69-4.56,19.23-9.26,28.5-14.68-.14-3.56-.29-6.56-.43-9.69,4.99,1.14,8.83,2.14,11.54,2.99,9.26-5.84,18.38-11.97,26.79-18.95-2.28,1-4.85,1.57-7.41,1.57s-2.85-.29-3.56-2.99c-1.28-4.7-3.84-7.7-11.68-10.12l.14-2.14c4.42.43,7.55.71,9.4.71,5.27,0,6.13-.57,6.13-4.85v-9.26c0-4.7-.29-10.26-.57-12.68,18.95,1.71,21.09,2.99,21.09,4.99,0,2.14-1.57,3.13-5.41,4.56v4.28Zm-73.38,29.35c10.97-8.41,22.94-20.52,30.92-35.19,14.39,6.84,16.96,8.41,16.96,10.54,0,1.57-1.14,2.57-6.27,2.71-10.12,9.98-24.94,19.09-40.61,23.66l-1-1.71Zm69.25,35.05v-10.97h-26.07l-.29.29v10.69h26.36Zm-26.36,18.38h26.36v-11.26h-26.36v11.26Zm0,20.09h26.36v-12.97h-26.36v12.97Zm31.21-56.57c1.42-4.56,2.71-9.12,3.71-13.68-7.27,4.99-14.96,9.4-22.8,13.68h19.09Zm13.11-54.57c11.97,0,23.51,2.71,32.06,8.41,4.13,2.71,6.7,6.41,6.7,10.4,0,5.13-3.42,7.84-7.41,7.84-3.13,0-5.13-1.28-8.69-6.13-6.13-8.12-15.53-15.39-23.37-18.52l.71-1.99Z"/><path class="cls-1" d="m654.69,65.92l-12.83.71v-8.55l12.83.71h6.13v-12.68c0-10.4-.29-16.96-.71-22.66,16.96,1.71,19.67,2.71,19.67,4.56s-1.28,2.71-5.27,4.42v26.36h1.42c2.14-3.13,4.56-6.27,7.41-9.55,9.83,10.12,11.11,11.83,11.11,13.39,0,1.71-.71,3.28-2.28,3.28h-17.67c0,5.42.14,14.11.14,19.38,15.39,2.56,20.66,9.26,20.66,15.53,0,5.27-3.13,7.98-7.55,7.98-3.28,0-5.98-1.99-6.69-6.13-.86-5.56-2.99-10.4-6.41-14.11.14,44.31.71,55.57.71,59.7,0,3.71-4.84,6.13-11.11,6.13-2.85,0-4.42-1.28-4.42-3.56,0-3.99.57-14.25.85-50.73-4.99,10.12-10.97,19.67-18.24,28.36l-1.71-1.28c4.7-10.26,8.55-20.8,11.83-31.63,2.85-9.69,5.41-19.52,6.84-29.64h-4.7Zm123.11,65.98c-4.85.57-9.26,2.99-12.25,5.84-1.43,1.42-2.14,2.14-2.99,2.14s-1.57-.71-2.85-1.99c-10.26-10.97-17.95-28.21-21.23-45.6.14,43.6.71,53.43.71,57.14s-5.27,5.98-11.83,5.98c-2.71,0-4.27-1.28-4.27-3.42,0-3.71.43-12.54.71-47.31-11.11,16.53-26.36,29.21-44.46,38.19l-1.42-1.85c16.1-13.4,30.21-32.78,38.61-52.58h-14.39l-13.25.71v-8.55l13.25.71h21.8c.14-7.26.14-14.53.14-21.8h-15.81c-3.56,7.27-8.12,14.11-14.25,20.66l-1.85-1c4.99-13.25,8.26-31.35,9.83-48.73,17.67,3.71,19.23,4.7,19.23,6.41,0,1.85-1.85,2.85-5.41,3.71-1.28,3.99-2.71,7.98-4.28,11.83h12.54v-8.55c0-8.83-.29-15.1-.71-20.66,17.1,1.71,20.09,2.71,20.09,4.42,0,1.85-1.28,2.56-5.13,4.28v20.52h10.26c2.71-3.42,5.42-6.98,9.26-11.26,13.97,12.11,14.68,13.82,14.68,15.39,0,1.71-.71,2.99-2.14,2.99h-32.06c0,5.85.14,17.1.14,21.8h11.97c2.85-3.7,5.84-7.26,9.69-11.54,14.25,12.11,15.11,13.82,15.11,15.39,0,1.71-.71,3.28-2.28,3.28h-31.92c6.84,15.25,20.66,31.63,37.33,41.46l-.57,2Z"/><path class="cls-1" d="m829.98,88.15h-10.54l-13.25.71v-8.55l13.25.71h27.93c2.28-2.99,5.42-6.84,8.55-10.4,12.96,11.54,13.82,13.25,13.82,14.53,0,1.71-.86,2.99-2.28,2.99h-19.67c-.57,1-1.42,1.43-2.42,1.71v32.21c10.69-.86,21.23-2.14,31.78-3.42l.57,2.14c-23.94,9.26-44.17,15.1-63.69,19.81-1,3.85-2.14,5.56-4.13,5.56s-4.13-2.28-10.12-21.09c10.4-.43,20.38-1.14,30.21-1.85v-35.05Zm-14.53-32.34l-14.25.71v-8.55l14.25.71h53.72c-.43-7.98-.57-16.67-.57-26.36,20.09,2.14,20.95,3.13,20.95,5.27,0,1.71-1.43,2.99-5.13,4.56,0,5.85.14,11.4.29,16.53h23.94c3.13-4.13,5.98-7.41,9.55-11.26,13.25,11.54,13.82,13.39,13.82,15.1,0,1.99-.71,3.28-2.28,3.28h-44.74c1.28,21.09,4.42,36.48,9.55,48.16,4.13,9.26,9.98,17.1,15.25,22.37,3.99,3.99,5.27,4.99,6.56,4.99,1.85,0,2.85-.71,4.42-2.99,2.56-3.85,5.56-8.69,7.55-13.11l1.99.86c-2.14,9.4-2.85,13.68-2.85,18.1,0,3.85,4.42,5.7,4.42,10.83s-3.42,8.12-9.12,8.12-13.4-2.14-22.8-11.83c-7.98-8.12-15.53-19.24-20.09-30.35-5.27-13.11-8.83-29.93-10.4-55.14h-54Zm76.23-30.64c15.67,0,21.8,6.41,21.8,12.11,0,5.13-3.56,7.69-7.41,7.69-3.42,0-5.84-1.85-7.13-5.84-1.71-5.56-4.42-9.4-7.98-11.97l.71-1.99Z"/><path class="cls-1" d="m950.84,89.43c23.37-16.1,45.03-39.47,60.13-67.83,18.38,6.27,19.67,7.27,19.67,9.55,0,1.14-.86,2.71-4.85,3.71,13.54,16.81,34.34,28.92,60.13,36.34l-.43,2.14c-4.85.86-9.55,4.13-12.4,8.69-1.28,1.99-1.85,2.85-2.85,2.85-.71,0-1.71-.43-2.99-1.14-20.52-10.83-35.48-26.93-45.03-47.45-16.53,24.08-42.6,43.89-70.1,54.86l-1.28-1.71Zm68.39,16.81c-.57,1.43-1.71,2.28-4.13,2.42-5.7,8.41-14.68,18.1-22.66,24.65,18.1-.29,36.05-.71,54.15-1.57-4.99-6.56-10.54-12.54-17.1-17.39l1.28-1.71c16.1,3.99,28.64,10.97,36.62,19.8,3.42,3.85,4.56,7.55,4.56,11.26,0,4.84-3.71,8.55-7.84,8.55-3.85,0-6.98-1.28-9.12-6.13-1.43-3.42-3.28-6.7-5.27-9.69-27.36,5.84-53.43,9.98-75.81,12.4-1.42,3.99-2.71,4.84-4.56,4.84-1.99,0-3.28-1.99-8.69-20.09,8.26,0,16.24,0,23.8-.14,4.84-8.69,8.83-17.81,12.25-27.22h-23.37l-14.25.71v-8.55l14.25.71h77.37c3.13-4.13,6.7-8.55,10.69-12.68,15.53,13.96,16.1,15.1,16.1,16.81s-.85,2.99-2.28,2.99h-56Zm-22.08-30.92h24.65c3.13-3.99,6.41-7.98,10.26-11.83,14.68,13.25,15.25,14.53,15.25,15.96,0,1.71-.85,2.99-2.28,2.99h-47.88l-12.68.71v-8.55l12.68.71Z"/><path class="cls-1" d="m1118.73,57.79l-13.68.71v-8.55l13.68.71h4.99v-11.4c0-7.26-.29-11.4-.71-15.25,18.24,1.71,21.52,2.85,21.52,4.85s-1.57,2.99-5.7,4.7v17.1h4.13c2.71-4.27,4.28-5.41,5.7-5.41,2,0,3.85.86,7.98,3.99,4.99,3.71,6.13,5.56,6.13,6.98,0,1.57-1,2.85-5.56,4.99-4.7,9.55-10.97,18.52-18.38,26.93v5.7c15.81,1.14,23.22,7.98,23.22,14.39,0,4.56-3.13,8.27-7.55,8.27-3.7,0-5.84-2-6.98-5.7-1.71-5.98-4.7-10.55-8.69-13.54v2.42c0,37.33.42,46.74.42,50.59,0,3.13-5.27,5.13-11.4,5.13-2.56,0-3.85-1.14-3.85-3.28,0-3.99.57-12.83.57-50.02-6.56,5.56-13.53,10.55-20.8,14.96l-1.42-1.57c9.12-8.98,17.1-18.95,24.08-29.64,5.7-8.98,10.83-18.24,14.82-28.07h-22.52Zm66.4,21.37h-14.82l-14.25.71v-8.55l14.25.71h14.82v-22.94c0-10.97-.29-18.67-.85-24.94,20.38,1.71,23.37,2.99,23.37,5.13s-1.71,3.28-6.27,4.99v37.76h7.55c2.85-4.13,5.7-7.98,9.12-11.68,14.53,12.4,15.39,13.97,15.39,15.53,0,1.71-.71,3.28-2.28,3.28h-29.78v61.41h9.98c2.99-3.99,5.84-7.55,9.55-11.97,14.68,12.25,16.1,13.96,16.1,16.1,0,2-1,2.99-1.99,2.99h-76.23l-14.25.71v-8.55l14.25.71h26.36v-61.41Z"/><circle class="cls-1" cx="215.17" cy="34.14" r="8.72"/><path class="cls-1" d="m149.14,63.16s6.36-6.98,25.45-8.54c0,0,8.69-30.42,40.58-34.14,0,0,26.47-5.12,46.33,18.31,0,0,10.71-8.54,20.64-10.09,0,0-9.93-4.5-23.28-4.5,0,0-11.02-22.5-39.26-24.05,0,0-30.73-3.57-52.61,23.74,0,0-12.88,15.21-17.85,39.26Z"/><path class="cls-1" d="m201.54,74.49c-22.87-19.86-53.13,2.33-53.13,2.33-34.25,22.81-61.2,22.35-61.2,22.35C32.59,103.51,0,73.71,0,73.71c10.09,17.23,27.43,34.3,27.43,34.3,44.81,40.51,88.19,44.23,88.19,44.23,74.18,7.14,91.3-36.16,91.3-36.16,13.04-27.11-5.38-41.59-5.38-41.59Zm-80.03,49.2s-40.82,2.79-65.96-15.21c0,0,24.31,8.85,58.71,6.52,0,0,38.9-1.24,65.75-22.81,0,0-15.36,28.09-58.51,31.5Z"/><path class="cls-1" d="m260.07,41.21s-5.65,11.57-8.35,34.39c0,0-1.51,13.07-3.42,25.32-4.29,27.57-26.24,69.28-81.62,76.15,0,0-42.52,7.76-79.46-18.47,0,0,29.33,13.19,69.37,6.36,0,0,43.92-5.74,64.56-46.56,0,0,5.62-8.46,9.36-24.07,1.6-6.69,2.63-11.42,5.07-23.89,2.59-13.22,7.8-27.59,24.49-29.25Z"/></svg>