<?xml version="1.0" encoding="UTF-8"?>
<svg xmlns="http://www.w3.org/2000/svg" width="79" height="79" viewBox="0 -15 79 79">
  <g>
    <circle cx="60.39" cy="9.58" r="2.45"/>
    <path d="m41.86,17.73s1.79-1.96,7.14-2.4c0,0,2.44-8.54,11.39-9.58,0,0,7.43-1.44,13,5.14,0,0,3.01-2.4,5.79-2.83,0,0-2.79-1.26-6.53-1.26,0,0-3.09-6.32-11.02-6.75,0,0-8.62-1-14.77,6.66,0,0-3.62,4.27-5.01,11.02Z"/>
    <path d="m56.57,20.91c-6.42-5.58-14.91.65-14.91.65-9.61,6.4-17.18,6.27-17.18,6.27C9.15,29.05,0,20.69,0,20.69c2.83,4.83,7.7,9.63,7.7,9.63,12.58,11.37,24.75,12.41,24.75,12.41,20.82,2,25.63-10.15,25.63-10.15,3.66-7.61-1.51-11.67-1.51-11.67Zm-22.46,13.81s-11.46.78-18.51-4.27c0,0,6.82,2.48,16.48,1.83,0,0,10.92-.35,18.45-6.4,0,0-4.31,7.88-16.42,8.84Z"/>
    <path d="m72.99,11.57s-1.58,3.25-2.34,9.65c0,0-.43,3.67-.96,7.11-1.2,7.74-7.37,19.45-22.91,21.37,0,0-11.93,2.18-22.3-5.18,0,0,8.23,3.7,19.47,1.79,0,0,12.33-1.61,18.12-13.07,0,0,1.58-2.37,2.63-6.76.45-1.88.74-3.21,1.42-6.7.73-3.71,2.19-7.74,6.87-8.21Z"/>
  </g>
</svg>
